# xmcd CD database file
#
# Track frame offsets:
#	150
#	20385
#	33782
#	50395
#	67612
#	79342
#	101220
#	119340
#	140967
#	151430
#	164197
#	176722
#	194105
#	206705
#	219702
#	240925
#	254982
#
# Disc length: 3724 seconds
#
# Revision: 0
# Processed by: cddbd v1.4PL0 Copyright (c) Steve Scherf et al.
# Submitted via: CDex 1.50beta9
#
DISCID=060e8a11
DTITLE=Lhotzky - Lhotzky
DYEAR=1900
DGENRE=Jazz
TTITLE0=Everything happens to me
TTITLE1=I'm crazy 'bout my baby
TTITLE2=Keepin' out pf Mischief now
TTITLE3=I'll never smile again
TTITLE4=Fragrance of April
TTITLE5=Just one of those Things
TTITLE6=Blame it on my Youth
TTITLE7=Honeysuckle Rose
TTITLE8=Brother can you spare a dime
TTITLE9=Fingerbuster
TTITLE10=I'm gonna sit right down
TTITLE11=I thought abaout you
TTITLE12=The curse of an aching Heart
TTITLE13=April in my Heart
TTITLE14=Don't you know I care
TTITLE15=Handful of Keys
TTITLE16=Until the real Thing comes along
EXTD=
EXTT0=
EXTT1=
EXTT2=
EXTT3=
EXTT4=
EXTT5=
EXTT6=
EXTT7=
EXTT8=
EXTT9=
EXTT10=
EXTT11=
EXTT12=
EXTT13=
EXTT14=
EXTT15=
EXTT16=
PLAYORDER=
